<svg version="1.1" viewBox="0 0 4.2333 4.2333" xmlns="http://www.w3.org/2000/svg">
  <path d="m2.1167 0.19338a0.45827 0.45827 0 0 0-0.22893 0.061495l-1.2692 0.73226a0.45827 0.45827 0 0 0-0.22893 0.39688v1.465a0.45827 0.45827 0 0 0 0.22893 0.39688l1.2692 0.73277a0.45827 0.45827 0 0 0 0.45785 0l1.2692-0.73277a0.45827 0.45827 0 0 0 0.22893-0.39688v-1.465a0.45827 0.45827 0 0 0-0.22893-0.39688l-1.2692-0.73226a0.45827 0.45827 0 0 0-0.22893-0.061495zm0 1.6211a0.3025 0.3025 0 0 1 0.30231 0.30231 0.3025 0.3025 0 0 1-0.30231 0.30231 0.3025 0.3025 0 0 1-0.30231-0.30231 0.3025 0.3025 0 0 1 0.30231-0.30231z" style="fill-opacity:.74902;fill:#cfe1fc;stroke-linecap:round;stroke-linejoin:round;stroke-width:.265"/>
</svg>
