<svg version="1.1" viewBox="0 0 4.2333 4.2333" xmlns="http://www.w3.org/2000/svg">
  <path d="m2.1167 0.23198a0.26458 0.26458 0 0 0-0.18707 0.077515l-1.6201 1.6201a0.26458 0.26458 0 0 0 0 0.37414l1.6201 1.6201a0.26458 0.26458 0 0 0 0.37414 0l1.6201-1.6201a0.26458 0.26458 0 0 0 0-0.37414l-1.6201-1.6201a0.26458 0.26458 0 0 0-0.18707-0.077515zm0 1.5823a0.3025 0.3025 0 0 1 0.30231 0.30231 0.3025 0.3025 0 0 1-0.30231 0.30231 0.3025 0.3025 0 0 1-0.30231-0.30231 0.3025 0.3025 0 0 1 0.30231-0.30231z" fill="#c0c0c0" fill-opacity=".74902" stroke-linecap="round" stroke-linejoin="round" stroke-width=".265"/>
</svg>
