<svg version="1.1" viewBox="0 0 4.2333 4.2333" xmlns="http://www.w3.org/2000/svg">
  <path d="m2.1167 0.35579a0.36417 0.36417 0 0 0-0.21394 0.069763l-1.4686 1.0671a0.36417 0.36417 0 0 0-0.13229 0.40669l0.56121 1.7265a0.36417 0.36417 0 0 0 0.34623 0.25166h1.8149a0.36417 0.36417 0 0 0 0.34623-0.25166l0.56121-1.7265a0.36417 0.36417 0 0 0-0.13229-0.40669l-1.4686-1.0671a0.36417 0.36417 0 0 0-0.21394-0.069763zm0 1.6061a0.3025 0.3025 0 0 1 0.30231 0.30231 0.3025 0.3025 0 0 1-0.30231 0.30231 0.3025 0.3025 0 0 1-0.30231-0.30231 0.3025 0.3025 0 0 1 0.30231-0.30231z" style="fill-opacity:.74902;fill:#ffd700;stroke-linecap:round;stroke-linejoin:round;stroke-width:.265"/>
</svg>
