<svg version="1.1" viewBox="0 0 100 100" xmlns="http://www.w3.org/2000/svg">
  <path d="m71.232 44.645c-2.0227-3.42e-4 -4.156 0.0079-6.2734 0.02344-4.2349 0.03104-8.4038 0.09253-11.484 0.17578-6.1608 0.16628-13.992 0.3598-17.402 0.42969-6.1004 0.12498-6.2657 0.15174-10.102 1.6777-4.5846 1.8239-5.4137 2.2939-4.8984 2.7734 0.19963 0.18578 2.1943 1.1302 4.4336 2.0996l4.0723 1.7637 17.592 0.80859c9.6759 0.44407 19.629 0.81867 22.119 0.83203 4.2942 0.02298 7.3027 0.05869 10.043 0.10547-0.05703-0.11835-1.7129-3.5692-1.7129-5.3184 0-1.7796 1.7227-5.3379 1.7227-5.3379h0.83789c-1.167 0.0037-2.3277 0.0051-3.3398-0.0059-1.6726-0.01805-3.5847-0.027-5.6074-0.02734z"/>
  <g stroke-linecap="round" stroke-linejoin="round" stroke-width="7.5">
    <path d="m19.184 53.918 11.05 41.239 8.8443-2.3698-10.115-37.748c-0.32899 0.07264-0.65854 0.14325-0.98749 0.21607-2.3443-0.26846-4.6986-0.66302-7.039-1.0276-0.56415-0.13489-1.1645-0.20503-1.7529-0.30878z"/>
    <path d="m30.091 4.8244-10.763 40.169c1.8874-0.43075 3.8458-0.5371 5.7613-0.80182 1.3121-0.19566 2.633-0.18037 3.9408-0.02988l9.9054-36.967z"/>
    <path d="m45.162 92.707c1.6602-0.44466 3.3203-0.88932 4.9805-1.334-3.0521-11.389-6.1042-22.777-9.1562-34.166-1.8572-0.22142-3.7056-0.50845-5.5527-0.80078 3.2428 12.1 6.4857 24.201 9.7285 36.301z"/>
    <path d="m35.572 42.531c1.8021-0.15724 3.6036-0.53835 5.4648-0.47852 2.9876-11.148 5.9753-22.297 8.9629-33.445-1.6608-0.44466-3.3216-0.88932-4.9824-1.334-3.1484 11.753-6.2969 23.505-9.4453 35.258z"/>
  </g>
  <g fill="none" stroke="#000" stroke-width="1px">
    <path d="m82.803 55.355s-1.7228-3.5592-1.7228-5.3389c0-1.7796 1.7228-5.3389 1.7228-5.3389h-0.8364s-1.7228 3.5592-1.7228 5.3389c0 1.7796 1.7228 5.3389 1.7228 5.3389z"/>
    <path d="m85.823 44.678s-1.7228 3.5592-1.7228 5.3389c0 1.7796 1.7228 5.3389 1.7228 5.3389"/>
    <path d="m76.68 44.678s-1.7227 3.5583-1.7227 5.3379 1.7227 5.3398 1.7227 5.3398h0.83789s-1.7227-3.5602-1.7227-5.3398 1.7227-5.3379 1.7227-5.3379zm1.4297 0s-1.7227 3.5583-1.7227 5.3379 1.7227 5.3398 1.7227 5.3398h0.83594s-1.7227-3.5602-1.7227-5.3398 1.7227-5.3379 1.7227-5.3379z"/>
  </g>
</svg>
